# File generated by ImageToStl.com - Free Image and 3D model conversion tools

mtllib standard_firing_target.mtl

o obj1
v -0.00218549 1.36513281 0.58512581
v 0.00218539 3.51E-06 0.58512575
v 0.00218549 3.56E-06 -0.58512575
v -0.00218539 1.36513286 -0.58512569
v -0.01146581 -4.012E-05 -0.58512575
v -0.0114659 -4.017E-05 0.58512575
v -0.01583678 1.36508907 0.58512581
v -0.01583669 1.36508912 -0.58512569
v -0.0114659 -4.017E-05 0.58512575
v 0.00218539 3.51E-06 0.58512575
v -0.00218549 1.36513281 0.58512581
v -0.01583678 1.36508907 0.58512581
v -0.01146581 -4.012E-05 -0.58512575
v 0.00218549 3.56E-06 -0.58512575
v 0.00218539 3.51E-06 0.58512575
v -0.0114659 -4.017E-05 0.58512575
v -0.01583669 1.36508912 -0.58512569
v -0.00218539 1.36513286 -0.58512569
v 0.00218549 3.56E-06 -0.58512575
v -0.01146581 -4.012E-05 -0.58512575
v -0.01583678 1.36508907 0.58512581
v -0.00218549 1.36513281 0.58512581
v -0.00218539 1.36513286 -0.58512569
v -0.01583669 1.36508912 -0.58512569
vn 0.99999 0.0032 0
vn -0.99999 -0.0032 -0
vn 0 -0 1
vn 0.0032 -0.99999 0
vn 0 -0 -1
vn -0.0032 0.99999 -0
vt 0.4909 0.99987
vt 0.4909 0.42737
vt 0.00013 0.42737
vt 0.00013 0.99987
vt 0.49116 0.99987
vt 0.98193 0.99987
vt 0.98193 0.42737
vt 0.49116 0.42737
vt 0.98791 0.42737
vt 0.98218 0.42737
vt 0.98219 0.99987
vt 0.98791 0.99987
vt 0.99987 0.01807
vt 0.99415 0.01807
vt 0.99415 0.50884
vt 0.99987 0.50884
vt 0.98817 0.99987
vt 0.99389 0.99987
vt 0.99389 0.42737
vt 0.98817 0.42737
vt 0.99415 0.99987
vt 0.99987 0.99987
vt 0.99987 0.5091
vt 0.99415 0.5091
usemtl mat0
f 1/1/1 2/2/1 3/3/1
f 3/3/1 4/4/1 1/1/1
f 5/5/2 6/6/2 7/7/2
f 7/7/2 8/8/2 5/5/2
f 9/9/3 10/10/3 11/11/3
f 11/11/3 12/12/3 9/9/3
f 13/13/4 14/14/4 15/15/4
f 15/15/4 16/16/4 13/13/4
f 17/17/5 18/18/5 19/19/5
f 19/19/5 20/20/5 17/17/5
f 21/21/6 22/22/6 23/23/6
f 23/23/6 24/24/6 21/21/6
# Vertices: 24, normals: 6, texture coordinates: 24, faces: 12

